<svg id="visual" viewBox="0 0 200 50" width="200" height="50" xmlns="http://www.w3.org/2000/svg" xmlns:xlink="http://www.w3.org/1999/xlink" version="1.1"><rect x="0" y="0" width="200" height="50" fill="#001220"></rect><path d="M0 32L2 31.5C4 31 8 30 12 29.2C16 28.3 20 27.7 23.8 28.3C27.7 29 31.3 31 35.2 31.7C39 32.3 43 31.7 47 31.7C51 31.7 55 32.3 59 32.5C63 32.7 67 32.3 70.8 31.8C74.7 31.3 78.3 30.7 82.2 30.2C86 29.7 90 29.3 94 29C98 28.7 102 28.3 106 28.3C110 28.3 114 28.7 117.8 28.7C121.7 28.7 125.3 28.3 129.2 28.3C133 28.3 137 28.7 141 28.7C145 28.7 149 28.3 153 28.7C157 29 161 30 164.8 30.7C168.7 31.3 172.3 31.7 176.2 31.5C180 31.3 184 30.7 188 30.3C192 30 196 30 198 30L200 30L200 51L198 51C196 51 192 51 188 51C184 51 180 51 176.2 51C172.3 51 168.7 51 164.8 51C161 51 157 51 153 51C149 51 145 51 141 51C137 51 133 51 129.2 51C125.3 51 121.7 51 117.8 51C114 51 110 51 106 51C102 51 98 51 94 51C90 51 86 51 82.2 51C78.3 51 74.7 51 70.8 51C67 51 63 51 59 51C55 51 51 51 47 51C43 51 39 51 35.2 51C31.3 51 27.7 51 23.8 51C20 51 16 51 12 51C8 51 4 51 2 51L0 51Z" fill="#2f1b04"></path><path d="M0 35L2 34.7C4 34.3 8 33.7 12 33.8C16 34 20 35 23.8 35.5C27.7 36 31.3 36 35.2 35.7C39 35.3 43 34.7 47 34.7C51 34.7 55 35.3 59 35.3C63 35.3 67 34.7 70.8 34.2C74.7 33.7 78.3 33.3 82.2 33.3C86 33.3 90 33.7 94 34.2C98 34.7 102 35.3 106 35.5C110 35.7 114 35.3 117.8 34.7C121.7 34 125.3 33 129.2 33C133 33 137 34 141 34.2C145 34.3 149 33.7 153 33.2C157 32.7 161 32.3 164.8 33C168.7 33.7 172.3 35.3 176.2 36C180 36.7 184 36.3 188 35.7C192 35 196 34 198 33.5L200 33L200 51L198 51C196 51 192 51 188 51C184 51 180 51 176.2 51C172.3 51 168.7 51 164.8 51C161 51 157 51 153 51C149 51 145 51 141 51C137 51 133 51 129.2 51C125.3 51 121.7 51 117.8 51C114 51 110 51 106 51C102 51 98 51 94 51C90 51 86 51 82.2 51C78.3 51 74.7 51 70.8 51C67 51 63 51 59 51C55 51 51 51 47 51C43 51 39 51 35.2 51C31.3 51 27.7 51 23.8 51C20 51 16 51 12 51C8 51 4 51 2 51L0 51Z" fill="#563213"></path><path d="M0 40L2 39.7C4 39.3 8 38.7 12 38.2C16 37.7 20 37.3 23.8 36.8C27.7 36.3 31.3 35.7 35.2 36.2C39 36.7 43 38.3 47 39.2C51 40 55 40 59 39.5C63 39 67 38 70.8 38C74.7 38 78.3 39 82.2 39.5C86 40 90 40 94 39.7C98 39.3 102 38.7 106 38C110 37.3 114 36.7 117.8 36.2C121.7 35.7 125.3 35.3 129.2 35.5C133 35.7 137 36.3 141 37C145 37.7 149 38.3 153 38.3C157 38.3 161 37.7 164.8 37.8C168.7 38 172.3 39 176.2 38.8C180 38.7 184 37.3 188 37C192 36.7 196 37.3 198 37.7L200 38L200 51L198 51C196 51 192 51 188 51C184 51 180 51 176.2 51C172.3 51 168.7 51 164.8 51C161 51 157 51 153 51C149 51 145 51 141 51C137 51 133 51 129.2 51C125.3 51 121.7 51 117.8 51C114 51 110 51 106 51C102 51 98 51 94 51C90 51 86 51 82.2 51C78.3 51 74.7 51 70.8 51C67 51 63 51 59 51C55 51 51 51 47 51C43 51 39 51 35.2 51C31.3 51 27.7 51 23.8 51C20 51 16 51 12 51C8 51 4 51 2 51L0 51Z" fill="#834a1e"></path><path d="M0 41L2 41.2C4 41.3 8 41.7 12 41.8C16 42 20 42 23.8 41.5C27.7 41 31.3 40 35.2 39.5C39 39 43 39 47 39.5C51 40 55 41 59 41.7C63 42.3 67 42.7 70.8 42.7C74.7 42.7 78.3 42.3 82.2 42C86 41.7 90 41.3 94 41.3C98 41.3 102 41.7 106 41.7C110 41.7 114 41.3 117.8 41.5C121.7 41.7 125.3 42.3 129.2 42.7C133 43 137 43 141 42.7C145 42.3 149 41.7 153 41.5C157 41.3 161 41.7 164.8 41.3C168.7 41 172.3 40 176.2 39.5C180 39 184 39 188 39.7C192 40.3 196 41.7 198 42.3L200 43L200 51L198 51C196 51 192 51 188 51C184 51 180 51 176.2 51C172.3 51 168.7 51 164.8 51C161 51 157 51 153 51C149 51 145 51 141 51C137 51 133 51 129.2 51C125.3 51 121.7 51 117.8 51C114 51 110 51 106 51C102 51 98 51 94 51C90 51 86 51 82.2 51C78.3 51 74.7 51 70.8 51C67 51 63 51 59 51C55 51 51 51 47 51C43 51 39 51 35.2 51C31.3 51 27.7 51 23.8 51C20 51 16 51 12 51C8 51 4 51 2 51L0 51Z" fill="#b4622c"></path><path d="M0 46L2 45.7C4 45.3 8 44.7 12 44.5C16 44.3 20 44.7 23.8 44.8C27.7 45 31.3 45 35.2 44.7C39 44.3 43 43.7 47 43.5C51 43.3 55 43.7 59 44.2C63 44.7 67 45.3 70.8 45.3C74.7 45.3 78.3 44.7 82.2 44.5C86 44.3 90 44.7 94 44.5C98 44.3 102 43.7 106 43.3C110 43 114 43 117.8 43.5C121.7 44 125.3 45 129.2 45.5C133 46 137 46 141 46C145 46 149 46 153 45.5C157 45 161 44 164.8 43.5C168.7 43 172.3 43 176.2 43.5C180 44 184 45 188 45.5C192 46 196 46 198 46L200 46L200 51L198 51C196 51 192 51 188 51C184 51 180 51 176.2 51C172.3 51 168.7 51 164.8 51C161 51 157 51 153 51C149 51 145 51 141 51C137 51 133 51 129.2 51C125.3 51 121.7 51 117.8 51C114 51 110 51 106 51C102 51 98 51 94 51C90 51 86 51 82.2 51C78.3 51 74.7 51 70.8 51C67 51 63 51 59 51C55 51 51 51 47 51C43 51 39 51 35.2 51C31.3 51 27.7 51 23.8 51C20 51 16 51 12 51C8 51 4 51 2 51L0 51Z" fill="#e87a3c"></path></svg>