<svg id="visual" viewBox="0 0 200 40" width="200" height="40" xmlns="http://www.w3.org/2000/svg" xmlns:xlink="http://www.w3.org/1999/xlink" version="1.1"><rect x="0" y="0" width="200" height="40" fill="#001220"></rect><path d="M0 25L2 24.7C4 24.3 8 23.7 12 23.2C16 22.7 20 22.3 23.8 22.8C27.7 23.3 31.3 24.7 35.2 25C39 25.3 43 24.7 47 24.7C51 24.7 55 25.3 59 25.5C63 25.7 67 25.3 70.8 25C74.7 24.7 78.3 24.3 82.2 24C86 23.7 90 23.3 94 23C98 22.7 102 22.3 106 22.3C110 22.3 114 22.7 117.8 22.7C121.7 22.7 125.3 22.3 129.2 22.3C133 22.3 137 22.7 141 22.7C145 22.7 149 22.3 153 22.7C157 23 161 24 164.8 24.7C168.7 25.3 172.3 25.7 176.2 25.3C180 25 184 24 188 23.7C192 23.3 196 23.7 198 23.8L200 24L200 41L198 41C196 41 192 41 188 41C184 41 180 41 176.2 41C172.3 41 168.7 41 164.8 41C161 41 157 41 153 41C149 41 145 41 141 41C137 41 133 41 129.2 41C125.3 41 121.7 41 117.8 41C114 41 110 41 106 41C102 41 98 41 94 41C90 41 86 41 82.2 41C78.3 41 74.7 41 70.8 41C67 41 63 41 59 41C55 41 51 41 47 41C43 41 39 41 35.2 41C31.3 41 27.7 41 23.8 41C20 41 16 41 12 41C8 41 4 41 2 41L0 41Z" fill="#2f1b04"></path><path d="M0 28L2 27.7C4 27.3 8 26.7 12 26.8C16 27 20 28 23.8 28.5C27.7 29 31.3 29 35.2 28.7C39 28.3 43 27.7 47 27.5C51 27.3 55 27.7 59 27.7C63 27.7 67 27.3 70.8 27C74.7 26.7 78.3 26.3 82.2 26.3C86 26.3 90 26.7 94 27.2C98 27.7 102 28.3 106 28.5C110 28.7 114 28.3 117.8 27.8C121.7 27.3 125.3 26.7 129.2 26.7C133 26.7 137 27.3 141 27.3C145 27.3 149 26.7 153 26.2C157 25.7 161 25.3 164.8 25.8C168.7 26.3 172.3 27.7 176.2 28.3C180 29 184 29 188 28.5C192 28 196 27 198 26.5L200 26L200 41L198 41C196 41 192 41 188 41C184 41 180 41 176.2 41C172.3 41 168.7 41 164.8 41C161 41 157 41 153 41C149 41 145 41 141 41C137 41 133 41 129.2 41C125.3 41 121.7 41 117.8 41C114 41 110 41 106 41C102 41 98 41 94 41C90 41 86 41 82.2 41C78.3 41 74.7 41 70.8 41C67 41 63 41 59 41C55 41 51 41 47 41C43 41 39 41 35.2 41C31.3 41 27.7 41 23.8 41C20 41 16 41 12 41C8 41 4 41 2 41L0 41Z" fill="#563213"></path><path d="M0 31L2 30.8C4 30.7 8 30.3 12 30.2C16 30 20 30 23.8 29.7C27.7 29.3 31.3 28.7 35.2 29C39 29.3 43 30.7 47 31.3C51 32 55 32 59 31.5C63 31 67 30 70.8 30C74.7 30 78.3 31 82.2 31.5C86 32 90 32 94 31.7C98 31.3 102 30.7 106 30.2C110 29.7 114 29.3 117.8 29C121.7 28.7 125.3 28.3 129.2 28.5C133 28.7 137 29.3 141 29.8C145 30.3 149 30.7 153 30.7C157 30.7 161 30.3 164.8 30.5C168.7 30.7 172.3 31.3 176.2 31.2C180 31 184 30 188 29.7C192 29.3 196 29.7 198 29.8L200 30L200 41L198 41C196 41 192 41 188 41C184 41 180 41 176.2 41C172.3 41 168.7 41 164.8 41C161 41 157 41 153 41C149 41 145 41 141 41C137 41 133 41 129.2 41C125.3 41 121.7 41 117.8 41C114 41 110 41 106 41C102 41 98 41 94 41C90 41 86 41 82.2 41C78.3 41 74.7 41 70.8 41C67 41 63 41 59 41C55 41 51 41 47 41C43 41 39 41 35.2 41C31.3 41 27.7 41 23.8 41C20 41 16 41 12 41C8 41 4 41 2 41L0 41Z" fill="#834a1e"></path><path d="M0 32L2 32.3C4 32.7 8 33.3 12 33.7C16 34 20 34 23.8 33.5C27.7 33 31.3 32 35.2 31.5C39 31 43 31 47 31.3C51 31.7 55 32.3 59 32.8C63 33.3 67 33.7 70.8 33.7C74.7 33.7 78.3 33.3 82.2 33.2C86 33 90 33 94 33.2C98 33.3 102 33.7 106 33.7C110 33.7 114 33.3 117.8 33.3C121.7 33.3 125.3 33.7 129.2 33.8C133 34 137 34 141 33.8C145 33.7 149 33.3 153 33.3C157 33.3 161 33.7 164.8 33.3C168.7 33 172.3 32 176.2 31.5C180 31 184 31 188 31.5C192 32 196 33 198 33.5L200 34L200 41L198 41C196 41 192 41 188 41C184 41 180 41 176.2 41C172.3 41 168.7 41 164.8 41C161 41 157 41 153 41C149 41 145 41 141 41C137 41 133 41 129.2 41C125.3 41 121.7 41 117.8 41C114 41 110 41 106 41C102 41 98 41 94 41C90 41 86 41 82.2 41C78.3 41 74.7 41 70.8 41C67 41 63 41 59 41C55 41 51 41 47 41C43 41 39 41 35.2 41C31.3 41 27.7 41 23.8 41C20 41 16 41 12 41C8 41 4 41 2 41L0 41Z" fill="#b4622c"></path><path d="M0 37L2 36.7C4 36.3 8 35.7 12 35.5C16 35.3 20 35.7 23.8 35.8C27.7 36 31.3 36 35.2 35.7C39 35.3 43 34.7 47 34.5C51 34.3 55 34.7 59 35.2C63 35.7 67 36.3 70.8 36.3C74.7 36.3 78.3 35.7 82.2 35.5C86 35.3 90 35.7 94 35.5C98 35.3 102 34.7 106 34.3C110 34 114 34 117.8 34.5C121.7 35 125.3 36 129.2 36.3C133 36.7 137 36.3 141 36.3C145 36.3 149 36.7 153 36.5C157 36.3 161 35.7 164.8 35.2C168.7 34.7 172.3 34.3 176.2 34.5C180 34.7 184 35.3 188 35.8C192 36.3 196 36.7 198 36.8L200 37L200 41L198 41C196 41 192 41 188 41C184 41 180 41 176.2 41C172.3 41 168.7 41 164.8 41C161 41 157 41 153 41C149 41 145 41 141 41C137 41 133 41 129.2 41C125.3 41 121.7 41 117.8 41C114 41 110 41 106 41C102 41 98 41 94 41C90 41 86 41 82.2 41C78.3 41 74.7 41 70.8 41C67 41 63 41 59 41C55 41 51 41 47 41C43 41 39 41 35.2 41C31.3 41 27.7 41 23.8 41C20 41 16 41 12 41C8 41 4 41 2 41L0 41Z" fill="#e87a3c"></path></svg>