<svg id="visual" viewBox="0 0 2000 300" width="2000" height="300" xmlns="http://www.w3.org/2000/svg" xmlns:xlink="http://www.w3.org/1999/xlink" version="1.1"><path d="M0 94L111 65L222 92L333 86L444 70L556 88L667 83L778 67L889 79L1000 92L1111 74L1222 75L1333 93L1444 94L1556 70L1667 67L1778 76L1889 64L2000 92L2000 0L1889 0L1778 0L1667 0L1556 0L1444 0L1333 0L1222 0L1111 0L1000 0L889 0L778 0L667 0L556 0L444 0L333 0L222 0L111 0L0 0Z" fill="#f09b75"></path><path d="M0 71L111 55L222 52L333 61L444 75L556 76L667 70L778 67L889 56L1000 58L1111 51L1222 76L1333 58L1444 67L1556 75L1667 74L1778 59L1889 74L2000 59L2000 0L1889 0L1778 0L1667 0L1556 0L1444 0L1333 0L1222 0L1111 0L1000 0L889 0L778 0L667 0L556 0L444 0L333 0L222 0L111 0L0 0Z" fill="#bb6c49"></path><path d="M0 48L111 48L222 61L333 55L444 61L556 49L667 45L778 55L889 39L1000 46L1111 56L1222 60L1333 49L1444 51L1556 44L1667 55L1778 54L1889 41L2000 48L2000 0L1889 0L1778 0L1667 0L1556 0L1444 0L1333 0L1222 0L1111 0L1000 0L889 0L778 0L667 0L556 0L444 0L333 0L222 0L111 0L0 0Z" fill="#874020"></path><path d="M0 42L111 26L222 25L333 39L444 33L556 36L667 36L778 35L889 31L1000 36L1111 36L1222 34L1333 36L1444 24L1556 37L1667 40L1778 29L1889 37L2000 40L2000 0L1889 0L1778 0L1667 0L1556 0L1444 0L1333 0L1222 0L1111 0L1000 0L889 0L778 0L667 0L556 0L444 0L333 0L222 0L111 0L0 0Z" fill="#561600"></path><path d="M0 23L111 16L222 11L333 26L444 22L556 22L667 21L778 14L889 21L1000 22L1111 16L1222 15L1333 15L1444 19L1556 23L1667 16L1778 20L1889 19L2000 17L2000 0L1889 0L1778 0L1667 0L1556 0L1444 0L1333 0L1222 0L1111 0L1000 0L889 0L778 0L667 0L556 0L444 0L333 0L222 0L111 0L0 0Z" fill="#000000"></path></svg>