<svg id="visual" viewBox="0 0 2000 300" width="2000" height="300" xmlns="http://www.w3.org/2000/svg" xmlns:xlink="http://www.w3.org/1999/xlink" version="1.1"><path d="M0 199L111 237L222 178L333 220L444 200L556 233L667 176L778 222L889 207L1000 224L1111 201L1222 214L1333 242L1444 231L1556 203L1667 241L1778 197L1889 179L2000 215L2000 0L1889 0L1778 0L1667 0L1556 0L1444 0L1333 0L1222 0L1111 0L1000 0L889 0L778 0L667 0L556 0L444 0L333 0L222 0L111 0L0 0Z" fill="#f09b75"></path><path d="M0 181L111 151L222 180L333 155L444 195L556 161L667 195L778 204L889 187L1000 171L1111 164L1222 185L1333 202L1444 181L1556 202L1667 201L1778 182L1889 206L2000 193L2000 0L1889 0L1778 0L1667 0L1556 0L1444 0L1333 0L1222 0L1111 0L1000 0L889 0L778 0L667 0L556 0L444 0L333 0L222 0L111 0L0 0Z" fill="#d1805b"></path><path d="M0 137L111 135L222 151L333 157L444 184L556 173L667 133L778 174L889 187L1000 184L1111 177L1222 169L1333 165L1444 184L1556 145L1667 161L1778 177L1889 132L2000 178L2000 0L1889 0L1778 0L1667 0L1556 0L1444 0L1333 0L1222 0L1111 0L1000 0L889 0L778 0L667 0L556 0L444 0L333 0L222 0L111 0L0 0Z" fill="#b36643"></path><path d="M0 125L111 128L222 113L333 123L444 151L556 154L667 147L778 132L889 127L1000 107L1111 130L1222 134L1333 138L1444 149L1556 112L1667 142L1778 122L1889 129L2000 110L2000 0L1889 0L1778 0L1667 0L1556 0L1444 0L1333 0L1222 0L1111 0L1000 0L889 0L778 0L667 0L556 0L444 0L333 0L222 0L111 0L0 0Z" fill="#964c2b"></path><path d="M0 115L111 97L222 95L333 87L444 114L556 89L667 90L778 100L889 94L1000 119L1111 85L1222 129L1333 123L1444 117L1556 91L1667 120L1778 128L1889 102L2000 103L2000 0L1889 0L1778 0L1667 0L1556 0L1444 0L1333 0L1222 0L1111 0L1000 0L889 0L778 0L667 0L556 0L444 0L333 0L222 0L111 0L0 0Z" fill="#793415"></path><path d="M0 84L111 93L222 73L333 69L444 68L556 100L667 88L778 93L889 90L1000 76L1111 84L1222 78L1333 94L1444 66L1556 70L1667 85L1778 87L1889 85L2000 77L2000 0L1889 0L1778 0L1667 0L1556 0L1444 0L1333 0L1222 0L1111 0L1000 0L889 0L778 0L667 0L556 0L444 0L333 0L222 0L111 0L0 0Z" fill="#5c1c00"></path><path d="M0 56L111 49L222 68L333 58L444 66L556 48L667 68L778 72L889 53L1000 53L1111 47L1222 70L1333 43L1444 45L1556 51L1667 69L1778 60L1889 59L2000 56L2000 0L1889 0L1778 0L1667 0L1556 0L1444 0L1333 0L1222 0L1111 0L1000 0L889 0L778 0L667 0L556 0L444 0L333 0L222 0L111 0L0 0Z" fill="#430200"></path><path d="M0 33L111 37L222 24L333 35L444 30L556 21L667 43L778 28L889 39L1000 26L1111 31L1222 34L1333 30L1444 45L1556 35L1667 29L1778 33L1889 35L2000 37L2000 0L1889 0L1778 0L1667 0L1556 0L1444 0L1333 0L1222 0L1111 0L1000 0L889 0L778 0L667 0L556 0L444 0L333 0L222 0L111 0L0 0Z" fill="#000000"></path></svg>